<?xml version="1.0" encoding="utf-8"?>
<!-- Generator: Adobe Illustrator 27.5.0, SVG Export Plug-In . SVG Version: 6.00 Build 0)  -->
<svg version="1.1" xmlns="http://www.w3.org/2000/svg" xmlns:xlink="http://www.w3.org/1999/xlink" x="0px" y="0px"
	 viewBox="0 0 500 500.001" style="enable-background:new 0 0 500 500.001;" xml:space="preserve">
<g id="BACKGROUND">
	<rect style="fill:#FFFFFF;" width="499.999" height="499.999"/>
</g>
<g id="OBJECTS">
	<g>
		<g>
			<path style="fill:#E1E7FF;" d="M30.129,74.927c-55.108,62.671,32.203,100.087,40.633,157.584
				c8.431,57.498-78.461,117.65-49.581,180.719c28.88,63.07,104.011,58.805,156.909,27.588
				c52.898-31.215,103.493-44.248,154.858-18.184c51.365,26.066,134.16,15.334,133.394-46.764
				c-0.768-62.096-67.465-109.629-20.699-173.259c46.766-63.629,61.982-126.656,8.469-146.251
				c-58.301-21.35-98.164,73.904-164.094,66.522C225.858,115.699,122.396-30.001,30.129,74.927z"/>
			<path style="fill:#E1E7FF;" d="M279.286,298.44c-23-55.963-70.531-95.061-102.729-144.893
				c-20.787-33.709-21.938-67.516-15.547-101.552c-10.876-4.663-21.832-10.12-33.222-12.099
				c-20.571,27.077-33.324,58.76-21.761,96.018c13.033,42.932,39.864,79.73,59.796,119.594c13.8,29.898,22.233,62.098,12.267,95.062
				c-8.434,26.832-29.898,41.398-50.598,59.799c-13.032,12.264-26.831,27.596-27.598,46.764c-0.138,1.94-0.096,3.854,0.027,5.754
				c26.421,0.43,54.515-8.111,78.169-22.07c28.931-17.07,57.171-28.684,85.228-31.457
				C287.269,374.558,296.747,340.644,279.286,298.44z"/>
		</g>
		<g>
			<g>
				<path style="fill:#FFFFFF;" d="M68.928,102.732c0,2.016-1.633,3.646-3.645,3.646h-24.9c-2.014,0-3.646-1.631-3.646-3.646l0,0
					c0-2.014,1.633-3.646,3.646-3.646h24.9C67.295,99.086,68.928,100.718,68.928,102.732L68.928,102.732z"/>
			</g>
			<g>
				<path style="fill:#FFFFFF;" d="M456.182,99.84c0-4.932-3.996-8.93-8.928-8.93c-4.932,0-8.93,3.999-8.93,8.93
					c0,4.932,3.998,8.93,8.93,8.93C452.186,108.77,456.182,104.771,456.182,99.84z"/>
			</g>
			<g>
				<path style="fill:#90B4FE;" d="M195.44,141.195h-58.602c-0.901,0-1.633-0.732-1.633-1.633c0-0.9,0.732-1.633,1.633-1.633h58.602
					c0.9,0,1.633,0.733,1.633,1.633C197.073,140.463,196.34,141.195,195.44,141.195z M136.838,138.429
					c-0.624,0-1.133,0.509-1.133,1.133c0,0.625,0.509,1.133,1.133,1.133h58.602c0.625,0,1.133-0.508,1.133-1.133
					c0-0.624-0.509-1.133-1.133-1.133H136.838z"/>
			</g>
			<g>
				<path style="fill:#90B4FE;" d="M102.129,90.658H58.113c-0.9,0-1.633-0.732-1.633-1.633c0-0.9,0.732-1.633,1.633-1.633h44.016
					c0.9,0,1.633,0.732,1.633,1.633C103.762,89.925,103.029,90.658,102.129,90.658z M58.113,87.892
					c-0.625,0-1.133,0.508-1.133,1.133s0.508,1.135,1.133,1.135h44.016c0.625,0,1.133-0.51,1.133-1.135s-0.508-1.133-1.133-1.133
					H58.113z"/>
			</g>
			<g>
				<path style="fill:#90B4FE;" d="M378.044,450.261H334.03c-0.9,0-1.635-0.732-1.635-1.633c0-0.9,0.734-1.633,1.635-1.633h44.014
					c0.9,0,1.633,0.732,1.633,1.633C379.677,449.528,378.944,450.261,378.044,450.261z M334.03,447.493
					c-0.625,0-1.135,0.51-1.135,1.135s0.51,1.133,1.135,1.133h44.014c0.625,0,1.135-0.508,1.135-1.133s-0.51-1.135-1.135-1.135
					H334.03z"/>
			</g>
			<g>
				<path style="fill:#FFFFFF;" d="M397.786,418.88c0,2.014-1.633,3.646-3.647,3.646h-24.898c-2.014,0-3.647-1.633-3.647-3.646l0,0
					c0-2.016,1.633-3.648,3.647-3.648h24.898C396.153,415.232,397.786,416.864,397.786,418.88L397.786,418.88z"/>
			</g>
			<g>
				<g>
					<path style="fill:#90B4FE;" d="M436.202,444.972h-24.898c-2.285,0-4.147-1.859-4.147-4.147s1.861-4.146,4.147-4.146h24.898
						c2.287,0,4.147,1.859,4.147,4.146S438.489,444.972,436.202,444.972z M411.304,437.679c-1.734,0-3.147,1.412-3.147,3.146
						c0,1.736,1.412,3.147,3.147,3.147h24.898c1.736,0,3.147-1.41,3.147-3.147c0-1.734-1.41-3.146-3.147-3.146H411.304z"/>
				</g>
			</g>
			<g>
				<path style="fill:#90B4FE;" d="M406.266,395.763h-2.387v-2.389c0-0.416-0.338-0.754-0.756-0.754
					c-0.416,0-0.754,0.338-0.754,0.754v2.389h-2.391c-0.416,0-0.754,0.338-0.754,0.756c0,0.416,0.338,0.754,0.754,0.754h2.391v2.391
					c0,0.416,0.338,0.754,0.754,0.754c0.418,0,0.756-0.338,0.756-0.754v-2.391h2.387c0.418,0,0.756-0.338,0.756-0.754
					C407.021,396.101,406.684,395.763,406.266,395.763z"/>
			</g>
			<g>
				<path style="fill:#90B4FE;" d="M113.381,192.629h-2.389v-2.39c0-0.416-0.338-0.753-0.754-0.753
					c-0.415,0-0.753,0.337-0.753,0.753v2.39h-2.392c-0.417,0-0.755,0.338-0.755,0.755c0,0.416,0.339,0.754,0.755,0.754h2.392v2.391
					c0,0.415,0.338,0.753,0.753,0.753c0.416,0,0.754-0.338,0.754-0.753v-2.391h2.389c0.416,0,0.754-0.338,0.754-0.754
					C114.135,192.967,113.797,192.629,113.381,192.629z"/>
			</g>
			<g>
				<path style="fill:#90B4FE;" d="M343.147,415.483h-2.389v-2.391c0-0.416-0.338-0.752-0.754-0.752
					c-0.416,0-0.754,0.336-0.754,0.752v2.391h-2.393c-0.416,0-0.754,0.338-0.754,0.754c0,0.416,0.338,0.754,0.754,0.754h2.393v2.391
					c0,0.416,0.338,0.754,0.754,0.754c0.416,0,0.754-0.338,0.754-0.754v-2.391h2.389c0.416,0,0.754-0.338,0.754-0.754
					C343.901,415.821,343.563,415.483,343.147,415.483z"/>
			</g>
			<g>
				<path style="fill:#90B4FE;" d="M86.349,106.127h-2.387v-2.389c0-0.416-0.338-0.754-0.754-0.754
					c-0.416,0-0.754,0.338-0.754,0.754v2.389h-2.393c-0.416,0-0.754,0.338-0.754,0.756c0,0.416,0.338,0.754,0.754,0.754h2.393v2.391
					c0,0.416,0.338,0.754,0.754,0.754c0.416,0,0.754-0.338,0.754-0.754v-2.391h2.387c0.418,0,0.756-0.338,0.756-0.754
					C87.105,106.465,86.767,106.127,86.349,106.127z"/>
			</g>
			<g>
				<path style="fill:#90B4FE;" d="M84.334,67.865h-2.389v-2.389c0-0.416-0.338-0.754-0.754-0.754c-0.416,0-0.754,0.338-0.754,0.754
					v2.389h-2.393c-0.416,0-0.754,0.338-0.754,0.756c0,0.416,0.338,0.754,0.754,0.754h2.393v2.391c0,0.416,0.338,0.754,0.754,0.754
					c0.416,0,0.754-0.338,0.754-0.754v-2.391h2.389c0.416,0,0.754-0.338,0.754-0.754C85.088,68.203,84.75,67.865,84.334,67.865z"/>
			</g>
			<g>
				<path style="fill:#90B4FE;" d="M444.503,403.413c-2.219,0-4.023-1.805-4.023-4.021s1.805-4.023,4.023-4.023
					c2.219,0,4.023,1.807,4.023,4.023S446.722,403.413,444.503,403.413z M444.503,395.868c-1.943,0-3.523,1.582-3.523,3.523
					s1.58,3.521,3.523,3.521c1.941,0,3.523-1.58,3.523-3.521S446.444,395.868,444.503,395.868z"/>
			</g>
			<g>
				<path style="fill:#90B4FE;" d="M136.771,193.634c-2.219,0-4.023-1.805-4.023-4.022c0-2.218,1.805-4.022,4.023-4.022
					c2.218,0,4.023,1.804,4.023,4.022C140.794,191.829,138.989,193.634,136.771,193.634z M136.771,186.089
					c-1.943,0-3.523,1.58-3.523,3.522c0,1.942,1.58,3.522,3.523,3.522c1.942,0,3.522-1.58,3.522-3.522
					C140.293,187.669,138.713,186.089,136.771,186.089z"/>
			</g>
			<g>
				<path style="fill:#90B4FE;" d="M302.53,433.841c-2.219,0-4.023-1.805-4.023-4.023c0-2.217,1.805-4.022,4.023-4.022
					c2.219,0,4.023,1.805,4.023,4.022C306.554,432.036,304.749,433.841,302.53,433.841z M302.53,426.296
					c-1.943,0-3.523,1.58-3.523,3.522c0,1.943,1.58,3.523,3.523,3.523c1.941,0,3.521-1.58,3.521-3.523
					C306.052,427.876,304.472,426.296,302.53,426.296z"/>
			</g>
			<g>
				<path style="fill:#90B4FE;" d="M92.381,173.767c0,8.751-7.095,15.845-15.846,15.845c-8.751,0-15.844-7.094-15.844-15.845
					c0-8.751,7.094-15.845,15.844-15.845C85.287,157.921,92.381,165.016,92.381,173.767z"/>
			</g>
			<g>
				<path style="fill:#90B4FE;" d="M445.509,431.896c0,4.932-3.998,8.93-8.93,8.93c-4.932,0-8.928-3.998-8.928-8.93
					c0-4.932,3.996-8.932,8.928-8.932C441.511,422.964,445.509,426.964,445.509,431.896z"/>
			</g>
			<g>
				<path style="fill:#FFFFFF;" d="M248.713,179.703c0,2.014-1.633,3.646-3.646,3.646h-24.898c-2.014,0-3.646-1.633-3.646-3.646l0,0
					c0-2.016,1.633-3.648,3.646-3.648h24.898C247.08,176.054,248.713,177.687,248.713,179.703L248.713,179.703z"/>
			</g>
			<g>
				<g>
					<path style="fill:#90B4FE;" d="M311.671,187.058h-24.898c-2.285,0-4.147-1.859-4.147-4.146c0-2.287,1.861-4.146,4.147-4.146
						h24.898c2.287,0,4.147,1.859,4.147,4.146C315.817,185.199,313.958,187.058,311.671,187.058z M286.772,179.765
						c-1.734,0-3.147,1.412-3.147,3.146c0,1.736,1.412,3.146,3.147,3.146h24.898c1.736,0,3.147-1.41,3.147-3.146
						c0-1.734-1.41-3.146-3.147-3.146H286.772z"/>
				</g>
			</g>
			<g>
				<path style="fill:#90B4FE;" d="M250.905,156.585h-2.387v-2.389c0-0.416-0.338-0.754-0.756-0.754
					c-0.416,0-0.754,0.338-0.754,0.754v2.389h-2.391c-0.416,0-0.754,0.338-0.754,0.756c0,0.416,0.338,0.754,0.754,0.754h2.391v2.391
					c0,0.416,0.338,0.754,0.754,0.754c0.418,0,0.756-0.338,0.756-0.754v-2.391h2.387c0.418,0,0.756-0.338,0.756-0.754
					C251.661,156.923,251.323,156.585,250.905,156.585z"/>
			</g>
			<g>
				<path style="fill:#90B4FE;" d="M320.978,173.982c0,4.932-3.998,8.93-8.93,8.93c-4.932,0-8.928-3.998-8.928-8.93
					c0-4.932,3.996-8.932,8.928-8.932C316.979,165.05,320.978,169.05,320.978,173.982z"/>
			</g>
			<g>
				<path style="fill:#90B4FE;" d="M379.05,127.437h-44.014c-0.9,0-1.633-0.733-1.633-1.633c0-0.901,0.732-1.633,1.633-1.633h44.014
					c0.9,0,1.635,0.732,1.635,1.633C380.685,126.704,379.95,127.437,379.05,127.437z M335.036,124.671
					c-0.625,0-1.133,0.508-1.133,1.133c0,0.625,0.508,1.134,1.133,1.134h44.014c0.625,0,1.135-0.509,1.135-1.134
					c0-0.625-0.51-1.133-1.135-1.133H335.036z"/>
			</g>
			<g>
				<path style="fill:#90B4FE;" d="M447.254,103.486c0-2.014-1.633-3.646-3.647-3.646h-24.9c-2.014,0-3.645,1.633-3.645,3.646l0,0
					c0,2.014,1.631,3.647,3.645,3.647h24.9C445.621,107.133,447.254,105.501,447.254,103.486L447.254,103.486z"/>
			</g>
			<g>
				<path style="fill:#90B4FE;" d="M445.043,146.491h-2.389v2.389c0,0.416-0.338,0.754-0.756,0.754
					c-0.416,0-0.754-0.338-0.754-0.754v-2.389h-2.391c-0.416,0-0.754-0.338-0.754-0.755c0-0.416,0.338-0.754,0.754-0.754h2.391
					v-2.391c0-0.416,0.338-0.754,0.754-0.754c0.418,0,0.756,0.338,0.756,0.754v2.391h2.389c0.416,0,0.754,0.338,0.754,0.754
					C445.797,146.153,445.459,146.491,445.043,146.491z"/>
			</g>
			<g>
				<path style="fill:#90B4FE;" d="M301.015,113.423h-2.389v2.39c0,0.416-0.338,0.754-0.754,0.754c-0.416,0-0.754-0.338-0.754-0.754
					v-2.39h-2.391c-0.418,0-0.756-0.338-0.756-0.755c0-0.415,0.338-0.753,0.756-0.753h2.391v-2.391c0-0.416,0.338-0.754,0.754-0.754
					c0.416,0,0.754,0.338,0.754,0.754v2.391h2.389c0.414,0,0.754,0.338,0.754,0.753
					C301.769,113.085,301.429,113.423,301.015,113.423z"/>
			</g>
			<g>
				<path style="fill:#90B4FE;" d="M451.027,133.848c-2.219,0-4.023-1.804-4.023-4.022s1.805-4.022,4.023-4.022
					c2.219,0,4.023,1.804,4.023,4.022S453.246,133.848,451.027,133.848z M451.027,126.304c-1.943,0-3.523,1.58-3.523,3.522
					c0,1.942,1.58,3.522,3.523,3.522c1.941,0,3.521-1.58,3.521-3.522C454.549,127.884,452.969,126.304,451.027,126.304z"/>
			</g>
			<g>
				<path style="fill:#90B4FE;" d="M221.44,111.155c-2.219,0-4.023-1.805-4.023-4.022c0-2.217,1.805-4.022,4.023-4.022
					c2.219,0,4.023,1.805,4.023,4.022C225.464,109.351,223.659,111.155,221.44,111.155z M221.44,103.611
					c-1.943,0-3.523,1.58-3.523,3.522c0,1.942,1.58,3.522,3.523,3.522c1.943,0,3.523-1.58,3.523-3.522
					C224.964,105.191,223.384,103.611,221.44,103.611z"/>
			</g>
			<g>
				<path style="fill:#FFFFFF;" d="M112.753,165.341c0,2.013-1.633,3.646-3.647,3.646H84.207c-2.014,0-3.647-1.633-3.647-3.646l0,0
					c0-2.015,1.633-3.647,3.647-3.647h24.899C111.12,161.694,112.753,163.327,112.753,165.341L112.753,165.341z"/>
			</g>
		</g>
	</g>
	<g>
		<g>
			<polygon style="fill:#3652CD;" points="324.92,426.147 242.463,426.147 252.472,367.275 314.912,367.275 			"/>
			<polygon style="fill:#5758FF;" points="252.472,367.275 248.137,392.772 319.246,392.772 314.912,367.275 			"/>
			<path style="fill:#3652CD;" d="M344.477,429.763c0,3.168-2.568,5.738-5.738,5.738H228.643c-3.168,0-5.737-2.57-5.737-5.738l0,0
				c0-3.17,2.569-5.74,5.737-5.74h110.095C341.908,424.022,344.477,426.593,344.477,429.763L344.477,429.763z"/>
			<path style="fill:#3652CD;" d="M447.984,376.192c0,5.521-4.477,9.998-10,9.998H129.398c-5.522,0-9.999-4.477-9.999-9.998V207.456
				c0-5.522,4.477-9.999,9.999-9.999h308.586c5.523,0,10,4.477,10,9.999V376.192z"/>
			<path style="fill:#080E3F;" d="M438.633,351.962c0,5.521-4.479,10-10,10H138.75c-5.522,0-10-4.479-10-10V213.985
				c0-5.522,4.478-9.999,10-9.999h289.882c5.521,0,10,4.477,10,9.999V351.962z"/>
			<path style="fill:#080E3F;" d="M291.555,375.138c0,4.344-3.521,7.865-7.863,7.865c-4.344,0-7.863-3.521-7.863-7.865
				c0-4.342,3.52-7.863,7.863-7.863C288.033,367.275,291.555,370.796,291.555,375.138z"/>
		</g>
		<g>
			<path style="fill:#BBD2FE;" d="M468.41,262.808c0,2.762-2.238,4.998-5,4.998H354.814c-2.762,0-5-2.236-5-4.998V154.634
				c0-2.762,2.238-5,5-5H463.41c2.762,0,5,2.239,5,5V262.808z"/>
			<path style="fill:#FFFFFF;" d="M464.871,173.041v86.669c0,2.762-2.238,5-5,5H358.354c-2.76,0-5-2.238-5-5v-86.669H464.871z"/>
			<g>
				<path style="fill:none;stroke:#FFFFFF;stroke-miterlimit:10;" d="M358.576,161.027c0,1.442-1.168,2.611-2.611,2.611
					c-1.441,0-2.611-1.169-2.611-2.611c0-1.443,1.17-2.612,2.611-2.612C357.408,158.415,358.576,159.584,358.576,161.027z"/>
				<g>
					<path style="fill:none;stroke:#FFFFFF;stroke-miterlimit:10;" d="M376.336,161.027c0,1.442-1.168,2.611-2.611,2.611
						c-1.441,0-2.611-1.169-2.611-2.611c0-1.443,1.17-2.612,2.611-2.612C375.168,158.415,376.336,159.584,376.336,161.027z"/>
				</g>
				<path style="fill:#FFFFFF;" d="M464.871,161.027c0,1.442-1.17,2.611-2.611,2.611h-53.277c-1.443,0-2.611-1.169-2.611-2.611l0,0
					c0-1.443,1.168-2.612,2.611-2.612h53.277C463.701,158.415,464.871,159.584,464.871,161.027L464.871,161.027z"/>
				<g>
					<path style="fill:none;stroke:#FFFFFF;stroke-miterlimit:10;" d="M367.457,161.027c0,1.442-1.17,2.611-2.611,2.611
						c-1.443,0-2.611-1.169-2.611-2.611c0-1.443,1.168-2.612,2.611-2.612C366.287,158.415,367.457,159.584,367.457,161.027z"/>
				</g>
			</g>
			<g>
				<g>
					<path style="fill:#8FB3FF;" d="M459.811,256.9H357.549v-58.038c0-0.478,0.387-0.864,0.865-0.864
						c0.477,0,0.863,0.387,0.863,0.864v56.309h100.533c0.479,0,0.865,0.387,0.865,0.865
						C460.676,256.511,460.289,256.9,459.811,256.9z"/>
				</g>
				<path style="fill:#E1E7FF;" d="M363.43,243.136c0,0,12.961-12.875,21.26-11.255c8.303,1.62,15.996,17.413,24.297,14.579
					c8.303-2.834,13.973-34.017,22.07-32.6c8.1,1.417,19.844,15.996,23.488,10.327c3.643-5.67,5.262-18.223,5.262-18.223v45.636
					H363.43V243.136z"/>
				<g>
					<g>
						<path style="fill:#90B4FE;" d="M363.693,232.034c3.779-5.96,8.842-11.999,16.07-13.563c3.219-0.697,6.545-0.189,9.617,0.884
							c1.77,0.618,3.445,1.489,5.059,2.438c1.578,0.929,3.018,2.097,4.727,2.791c2.244,0.912,4.498,1.021,6.693-0.075
							c2.266-1.133,3.953-3.301,5.496-5.237c1.908-2.394,3.728-4.855,5.992-6.934c2.949-2.708,6.799-3.952,10.734-4.091
							c3.016-0.106,6.031,0.186,9.049,0.046c2.643-0.123,5.229-1.288,7.486-2.585c5.215-2.998,9.412-7.735,15.272-9.575
							c0.373-0.117,0.215-0.703-0.16-0.585c-6.563,2.061-11.143,7.629-17.229,10.599c-6.57,3.205-14.016,0.043-20.721,2.729
							c-6.055,2.426-8.982,8.288-13.26,12.77c-1.934,2.029-4.313,3.452-7.197,2.97c-1.648-0.273-3.158-1.133-4.535-2.036
							c-1.693-1.108-3.397-2.142-5.234-2.992c-4.725-2.184-10.164-2.823-15.039-0.743c-5.846,2.493-10.022,7.645-13.346,12.882
							C362.957,232.06,363.482,232.364,363.693,232.034L363.693,232.034z"/>
					</g>
				</g>
				<g>
					<polygon style="fill:#3652CD;" points="363.689,251.759 363.172,251.441 388.799,209.559 414.73,230.656 424.477,220.205 
						441.596,224.434 454.26,189.602 454.83,189.809 441.98,225.154 424.678,220.88 414.787,231.485 388.955,210.468 					"/>
				</g>
			</g>
		</g>
		<g>
			<path style="fill:#BBD2FE;" d="M412.242,377.026c0,2.762-2.238,5-5,5h-94.496c-2.762,0-5-2.238-5-5v-96.965c0-2.76,2.238-5,5-5
				h94.496c2.762,0,5,2.24,5,5V377.026z"/>
			<path style="fill:#FFFFFF;" d="M408.906,298.47v76.057c0,2.762-2.24,5-5,5h-87.824c-2.76,0-5-2.238-5-5V298.47H408.906z"/>
			<g>
				<path style="fill:none;stroke:#FFFFFF;stroke-miterlimit:10;" d="M316.307,286.456c0,1.441-1.168,2.611-2.613,2.611
					c-1.439,0-2.611-1.17-2.611-2.611c0-1.443,1.172-2.613,2.611-2.613C315.139,283.843,316.307,285.013,316.307,286.456z"/>
				<g>
					<path style="fill:none;stroke:#FFFFFF;stroke-miterlimit:10;" d="M334.066,286.456c0,1.441-1.17,2.611-2.613,2.611
						c-1.441,0-2.611-1.17-2.611-2.611c0-1.443,1.17-2.613,2.611-2.613C332.896,283.843,334.066,285.013,334.066,286.456z"/>
				</g>
				<path style="fill:#FFFFFF;" d="M408.906,286.456c0,1.441-1.17,2.611-2.611,2.611h-53.277c-1.445,0-2.613-1.17-2.613-2.611l0,0
					c0-1.443,1.168-2.613,2.613-2.613h53.277C407.736,283.843,408.906,285.013,408.906,286.456L408.906,286.456z"/>
				<g>
					<path style="fill:none;stroke:#FFFFFF;stroke-miterlimit:10;" d="M325.186,286.456c0,1.441-1.17,2.611-2.611,2.611
						c-1.441,0-2.611-1.17-2.611-2.611c0-1.443,1.17-2.613,2.611-2.613C324.016,283.843,325.186,285.013,325.186,286.456z"/>
				</g>
			</g>
			<g>
				<g>
					<path style="fill:#8FB3FF;" d="M396.42,376.521h-79.424v-56.02c0-0.371,0.301-0.67,0.672-0.67c0.369,0,0.67,0.299,0.67,0.67
						v54.68h78.082c0.369,0,0.67,0.299,0.67,0.668C397.09,376.22,396.789,376.521,396.42,376.521z"/>
				</g>
				<path style="fill:#3652CD;" d="M402.229,332.005c-0.004-0.022-0.018-0.041-0.025-0.061c-0.01-0.029-0.018-0.061-0.035-0.086
					c-0.016-0.027-0.039-0.047-0.061-0.07c-0.018-0.018-0.027-0.039-0.047-0.053c-0.004-0.004-0.008-0.004-0.012-0.006
					c-0.002-0.002-0.004-0.008-0.008-0.01c-0.025-0.016-0.053-0.021-0.078-0.033c-0.023-0.01-0.047-0.024-0.072-0.031
					c-0.027-0.006-0.055-0.002-0.084-0.004c-0.029-0.002-0.059-0.006-0.088-0.002c-0.004,0.002-0.01,0-0.014,0l-4.885,0.932
					c-0.242,0.045-0.4,0.279-0.356,0.523c0.047,0.242,0.279,0.402,0.523,0.355l3.73-0.711l-14.809,19.316l-10.678-9.119
					c-0.186-0.156-0.459-0.141-0.621,0.037l-14.978,16.359l-19.082-10.361c-0.162-0.088-0.359-0.066-0.5,0.053L320.66,365.38
					c-0.189,0.16-0.213,0.441-0.055,0.631c0.09,0.105,0.217,0.16,0.344,0.16c0.102,0,0.203-0.035,0.287-0.105l19.156-16.15
					l19.121,10.379c0.18,0.1,0.404,0.063,0.543-0.09l14.922-16.297l10.709,9.145c0.094,0.08,0.217,0.117,0.338,0.105
					c0.123-0.014,0.234-0.076,0.309-0.174l15.201-19.828l0.744,3.902c0.041,0.215,0.229,0.363,0.438,0.363
					c0.029,0,0.057-0.002,0.086-0.008c0.242-0.045,0.402-0.279,0.355-0.523L402.229,332.005z"/>
				<g>
					<g>
						<path style="fill:#BBD2FE;" d="M329.207,372.659c-0.125,0-0.225-0.098-0.225-0.223v-21.846c0-0.123,0.1-0.223,0.225-0.223
							c0.123,0,0.225,0.1,0.225,0.223v21.846C329.432,372.562,329.33,372.659,329.207,372.659z"/>
					</g>
					<g>
						<path style="fill:#BBD2FE;" d="M340.662,372.564c-0.123,0-0.223-0.102-0.223-0.223v-40.348c0-0.123,0.1-0.225,0.223-0.225
							c0.125,0,0.225,0.102,0.225,0.225v40.348C340.887,372.462,340.787,372.564,340.662,372.564z"/>
					</g>
					<g>
						<path style="fill:#BBD2FE;" d="M359.727,372.564c-0.123,0-0.223-0.102-0.223-0.223v-24.875c0-0.123,0.1-0.225,0.223-0.225
							c0.125,0,0.225,0.102,0.225,0.225v24.875C359.951,372.462,359.852,372.564,359.727,372.564z"/>
					</g>
					<g>
						<path style="fill:#BBD2FE;" d="M374.941,372.564c-0.123,0-0.225-0.102-0.225-0.223v-51.84c0-0.123,0.102-0.223,0.225-0.223
							c0.123,0,0.223,0.1,0.223,0.223v51.84C375.164,372.462,375.064,372.564,374.941,372.564z"/>
					</g>
					<g>
						<path style="fill:#BBD2FE;" d="M385.979,372.659c-0.123,0-0.225-0.098-0.225-0.223v-39.449c0-0.125,0.102-0.225,0.225-0.225
							c0.123,0,0.223,0.1,0.223,0.225v39.449C386.201,372.562,386.102,372.659,385.979,372.659z"/>
					</g>
				</g>
			</g>
		</g>
		<g>
			<path style="fill:#BBD2FE;" d="M293.971,353.347c0,2.762-2.238,5-5,5H144.493c-2.762,0-5-2.238-5-5V223.062c0-2.761,2.238-5,5-5
				h144.478c2.762,0,5,2.239,5,5V353.347z"/>
			<path style="fill:#FFFFFF;" d="M290.307,241.468V349.69c0,2.762-2.238,5-4.998,5H148.156c-2.76,0-4.999-2.238-4.999-5V241.468
				H290.307z"/>
			<g>
				<path style="fill:none;stroke:#FFFFFF;stroke-miterlimit:10;" d="M148.38,229.454c0,1.442-1.169,2.611-2.611,2.611
					c-1.443,0-2.612-1.169-2.612-2.611c0-1.441,1.169-2.612,2.612-2.612C147.212,226.842,148.38,228.013,148.38,229.454z"/>
				<g>
					<path style="fill:none;stroke:#FFFFFF;stroke-miterlimit:10;" d="M166.139,229.454c0,1.442-1.169,2.611-2.611,2.611
						s-2.612-1.169-2.612-2.611c0-1.441,1.17-2.612,2.612-2.612S166.139,228.013,166.139,229.454z"/>
				</g>
				<path style="fill:#FFFFFF;" d="M290.307,229.454c0,1.442-1.168,2.611-2.611,2.611h-53.277c-1.443,0-2.613-1.169-2.613-2.611l0,0
					c0-1.441,1.17-2.612,2.613-2.612h53.277C289.139,226.842,290.307,228.013,290.307,229.454L290.307,229.454z"/>
				<g>
					<path style="fill:none;stroke:#FFFFFF;stroke-miterlimit:10;" d="M157.259,229.454c0,1.442-1.168,2.611-2.611,2.611
						c-1.442,0-2.612-1.169-2.612-2.611c0-1.441,1.17-2.612,2.612-2.612C156.091,226.842,157.259,228.013,157.259,229.454z"/>
				</g>
			</g>
			<g>
				<rect x="165.627" y="322.325" style="fill:#BBD2FE;" width="17.866" height="14.406"/>
				<rect x="186.107" y="292.991" style="fill:#E1E7FF;" width="17.865" height="43.74"/>
				<rect x="206.586" y="304.601" style="fill:#BBD2FE;" width="17.867" height="32.131"/>
				<rect x="227.065" y="277.995" style="fill:#E1E7FF;" width="17.867" height="58.736"/>
				<rect x="247.545" y="258.692" style="fill:#BBD2FE;" width="17.868" height="78.039"/>
			</g>
			<g>
				<g>
					<path style="fill:#90B4FE;" d="M148.345,325.646c-0.233,0-0.465-0.092-0.637-0.273c-0.332-0.352-0.317-0.906,0.036-1.238
						l31.058-29.342c0.252-0.236,0.621-0.305,0.938-0.172l22.244,9.275l22.425-25.516c0.27-0.305,0.711-0.385,1.07-0.195
						l30.284,16.105l31.093-44.604c0.275-0.396,0.82-0.494,1.219-0.217c0.398,0.275,0.494,0.822,0.219,1.219l-31.536,45.24
						c-0.254,0.363-0.738,0.48-1.131,0.273l-30.358-16.145l-22.384,25.467c-0.248,0.283-0.649,0.373-0.995,0.23l-22.299-9.299
						l-30.645,28.951C148.776,325.567,148.56,325.646,148.345,325.646z"/>
				</g>
				<path style="fill:#90B4FE;" d="M182.709,295.482c0,1.645-1.334,2.977-2.978,2.977c-1.645,0-2.977-1.332-2.977-2.977
					s1.333-2.977,2.977-2.977C181.375,292.505,182.709,293.837,182.709,295.482z"/>
				<path style="fill:#90B4FE;" d="M204.688,305.073c0,1.643-1.333,2.977-2.977,2.977c-1.645,0-2.978-1.334-2.978-2.977
					c0-1.645,1.333-2.979,2.978-2.979C203.354,302.095,204.688,303.429,204.688,305.073z"/>
				<path style="fill:#90B4FE;" d="M228.243,279.042c0,1.645-1.334,2.977-2.979,2.977c-1.644,0-2.977-1.332-2.977-2.977
					c0-1.645,1.333-2.978,2.977-2.978C226.909,276.064,228.243,277.397,228.243,279.042z"/>
				<path style="fill:#90B4FE;" d="M259.013,295.429c0,1.645-1.334,2.977-2.979,2.977c-1.644,0-2.976-1.332-2.976-2.977
					c0-1.645,1.332-2.979,2.976-2.979C257.679,292.45,259.013,293.784,259.013,295.429z"/>
			</g>
			<g>
				<g>
					<path style="fill:#FF7268;" d="M276.984,341.732c0-1.188-6.171-2.15-13.786-2.15s-13.788,0.963-13.788,2.15
						c0,0.301,0,1.385,0,1.682c0,1.19,6.172,2.154,13.788,2.154s13.786-0.965,13.786-2.154
						C276.984,343.116,276.984,342.032,276.984,341.732z"/>
					<path style="fill:#F99EA3;" d="M276.984,341.732c0,1.189-6.171,2.154-13.786,2.154s-13.788-0.965-13.788-2.154
						c0-1.188,6.172-2.15,13.788-2.15S276.984,340.544,276.984,341.732z"/>
					<g>
						<path style="fill:#FF7268;" d="M263.198,343.257c-4.186,0-10.412-0.406-10.412-1.525c0-1.117,6.227-1.523,10.412-1.523
							c4.185,0,10.413,0.406,10.413,1.523C273.611,342.851,267.384,343.257,263.198,343.257z M263.198,340.505
							c-6.268,0-10.117,0.715-10.117,1.227c0,0.514,3.85,1.23,10.117,1.23c6.27,0,10.118-0.717,10.118-1.23
							C273.316,341.22,269.468,340.505,263.198,340.505z"/>
					</g>
				</g>
				<g>
					<path style="fill:#FF7268;" d="M276.238,339.743c0-1.189-6.171-2.152-13.786-2.152c-7.613,0-13.788,0.963-13.788,2.152
						c0,0.299,0,1.383,0,1.682c0,1.188,6.174,2.152,13.788,2.152c7.615,0,13.786-0.965,13.786-2.152
						C276.238,341.126,276.238,340.042,276.238,339.743z"/>
					<path style="fill:#F99EA3;" d="M276.238,339.743c0,1.188-6.171,2.152-13.786,2.152c-7.613,0-13.788-0.965-13.788-2.152
						c0-1.189,6.174-2.152,13.788-2.152C270.067,337.591,276.238,338.554,276.238,339.743z"/>
					<g>
						<path style="fill:#FF7268;" d="M262.452,341.267c-4.185,0-10.414-0.406-10.414-1.523c0-1.119,6.229-1.525,10.414-1.525
							c4.186,0,10.413,0.406,10.413,1.525C272.865,340.86,266.638,341.267,262.452,341.267z M262.452,338.513
							c-6.268,0-10.117,0.717-10.117,1.23s3.85,1.229,10.117,1.229c6.268,0,10.118-0.715,10.118-1.229
							S268.72,338.513,262.452,338.513z"/>
					</g>
				</g>
				<g>
					<path style="fill:#FF7268;" d="M276.521,337.897c0-1.189-6.171-2.152-13.786-2.152c-7.613,0-13.788,0.963-13.788,2.152
						c0,0.299,0,1.383,0,1.682c0,1.189,6.174,2.152,13.788,2.152c7.615,0,13.786-0.963,13.786-2.152
						C276.521,339.28,276.521,338.196,276.521,337.897z"/>
					<path style="fill:#F99EA3;" d="M276.521,337.897c0,1.19-6.171,2.152-13.786,2.152c-7.613,0-13.788-0.963-13.788-2.152
						c0-1.189,6.174-2.152,13.788-2.152C270.351,335.745,276.521,336.708,276.521,337.897z"/>
					<g>
						<path style="fill:#FF7268;" d="M262.735,339.423c-4.186,0-10.414-0.406-10.414-1.525c0-1.117,6.229-1.523,10.414-1.523
							c4.185,0,10.413,0.406,10.413,1.523C273.148,339.017,266.921,339.423,262.735,339.423z M262.735,336.669
							c-6.268,0-10.117,0.715-10.117,1.228s3.85,1.229,10.117,1.229c6.268,0,10.118-0.715,10.118-1.229
							S269.003,336.669,262.735,336.669z"/>
					</g>
				</g>
				<g>
					<path style="fill:#FF7268;" d="M277.66,335.907c0-1.188-6.174-2.152-13.788-2.152c-7.613,0-13.786,0.965-13.786,2.152
						c0,0.299,0,1.385,0,1.684c0,1.188,6.172,2.152,13.786,2.152c7.614,0,13.788-0.965,13.788-2.152
						C277.66,337.292,277.66,336.206,277.66,335.907z"/>
					<path style="fill:#F99EA3;" d="M277.66,335.907c0,1.189-6.174,2.154-13.788,2.154c-7.613,0-13.786-0.965-13.786-2.154
						c0-1.188,6.172-2.152,13.786-2.152C271.486,333.755,277.66,334.72,277.66,335.907z"/>
					<g>
						<path style="fill:#FF7268;" d="M263.872,337.433c-4.186,0-10.412-0.406-10.412-1.525c0-1.117,6.227-1.523,10.412-1.523
							c4.186,0,10.413,0.406,10.413,1.523C274.285,337.026,268.058,337.433,263.872,337.433z M263.872,334.679
							c-6.268,0-10.117,0.715-10.117,1.229c0,0.514,3.85,1.23,10.117,1.23c6.27,0,10.118-0.717,10.118-1.23
							C273.99,335.394,270.142,334.679,263.872,334.679z"/>
					</g>
				</g>
				<g>
					<path style="fill:#FF7268;" d="M277.602,334.064c0-1.189-6.172-2.154-13.786-2.154c-7.613,0-13.788,0.965-13.788,2.154
						c0,0.299,0,1.383,0,1.682c0,1.189,6.174,2.152,13.788,2.152c7.614,0,13.786-0.963,13.786-2.152
						C277.602,335.446,277.602,334.362,277.602,334.064z"/>
					<path style="fill:#F99EA3;" d="M277.602,334.064c0,1.188-6.172,2.152-13.786,2.152c-7.613,0-13.788-0.965-13.788-2.152
						c0-1.189,6.174-2.154,13.788-2.154C271.43,331.909,277.602,332.874,277.602,334.064z"/>
					<g>
						<path style="fill:#FF7268;" d="M263.815,335.587c-4.186,0-10.414-0.406-10.414-1.523c0-1.119,6.228-1.523,10.414-1.523
							c4.188,0,10.413,0.404,10.413,1.523C274.229,335.181,268.003,335.587,263.815,335.587z M263.815,332.835
							c-6.268,0-10.117,0.715-10.117,1.229s3.85,1.228,10.117,1.228c6.27,0,10.118-0.715,10.118-1.228
							S270.085,332.835,263.815,332.835z"/>
					</g>
				</g>
				<g>
					<path style="fill:#FF7268;" d="M276.984,332.38c0-1.189-6.171-2.152-13.786-2.152s-13.788,0.963-13.788,2.152
						c0,0.299,0,1.385,0,1.684c0,1.188,6.172,2.152,13.788,2.152s13.786-0.965,13.786-2.152
						C276.984,333.765,276.984,332.679,276.984,332.38z"/>
					<path style="fill:#F99EA3;" d="M276.984,332.38c0,1.189-6.171,2.152-13.786,2.152s-13.788-0.963-13.788-2.152
						c0-1.189,6.172-2.152,13.788-2.152S276.984,331.19,276.984,332.38z"/>
					<g>
						<path style="fill:#FF7268;" d="M263.198,333.905c-4.186,0-10.412-0.406-10.412-1.525c0-1.117,6.227-1.523,10.412-1.523
							c4.185,0,10.413,0.406,10.413,1.523C273.611,333.499,267.384,333.905,263.198,333.905z M263.198,331.151
							c-6.268,0-10.117,0.715-10.117,1.229c0,0.514,3.85,1.228,10.117,1.228c6.27,0,10.118-0.715,10.118-1.228
							C273.316,331.866,269.468,331.151,263.198,331.151z"/>
					</g>
				</g>
				<g>
					<path style="fill:#FF7268;" d="M276.664,330.228c0-1.188-6.171-2.15-13.786-2.15c-7.613,0-13.788,0.963-13.788,2.15
						c0,0.299,0,1.383,0,1.682c0,1.189,6.174,2.154,13.788,2.154c7.615,0,13.786-0.965,13.786-2.154
						C276.664,331.61,276.664,330.526,276.664,330.228z"/>
					<path style="fill:#F99EA3;" d="M276.664,330.228c0,1.189-6.171,2.152-13.786,2.152c-7.613,0-13.788-0.963-13.788-2.152
						c0-1.188,6.174-2.15,13.788-2.15C270.493,328.077,276.664,329.04,276.664,330.228z"/>
					<g>
						<path style="fill:#FF7268;" d="M262.878,331.753c-4.186,0-10.414-0.406-10.414-1.525c0-1.117,6.229-1.523,10.414-1.523
							c4.188,0,10.415,0.406,10.415,1.523C273.293,331.347,267.065,331.753,262.878,331.753z M262.878,329.001
							c-6.268,0-10.117,0.715-10.117,1.227c0,0.514,3.85,1.23,10.117,1.23c6.27,0,10.118-0.717,10.118-1.23
							C272.996,329.716,269.147,329.001,262.878,329.001z"/>
					</g>
				</g>
				<g>
					<path style="fill:#FF7268;" d="M276.664,328.235c0-1.19-6.171-2.154-13.786-2.154c-7.613,0-13.788,0.965-13.788,2.154
						c0,0.297,0,1.383,0,1.682c0,1.188,6.174,2.152,13.788,2.152c7.615,0,13.786-0.965,13.786-2.152
						C276.664,329.618,276.664,328.532,276.664,328.235z"/>
					<path style="fill:#F99EA3;" d="M276.664,328.235c0,1.188-6.171,2.15-13.786,2.15c-7.613,0-13.788-0.963-13.788-2.15
						c0-1.19,6.174-2.154,13.788-2.154C270.493,326.081,276.664,327.046,276.664,328.235z"/>
					<g>
						<path style="fill:#FF7268;" d="M262.878,329.759c-4.186,0-10.414-0.406-10.414-1.523c0-1.119,6.229-1.525,10.414-1.525
							c4.188,0,10.415,0.406,10.415,1.525C273.293,329.353,267.065,329.759,262.878,329.759z M262.878,327.005
							c-6.268,0-10.117,0.717-10.117,1.23c0,0.512,3.85,1.228,10.117,1.228c6.27,0,10.118-0.717,10.118-1.228
							C272.996,327.722,269.147,327.005,262.878,327.005z"/>
					</g>
				</g>
				<g>
					<path style="fill:#FF7268;" d="M276.521,326.245c0-1.19-6.171-2.152-13.786-2.152c-7.613,0-13.788,0.963-13.788,2.152
						c0,0.297,0,1.383,0,1.682c0,1.188,6.174,2.152,13.788,2.152c7.615,0,13.786-0.965,13.786-2.152
						C276.521,327.628,276.521,326.542,276.521,326.245z"/>
					<path style="fill:#F99EA3;" d="M276.521,326.245c0,1.189-6.171,2.152-13.786,2.152c-7.613,0-13.788-0.963-13.788-2.152
						c0-1.19,6.174-2.152,13.788-2.152C270.351,324.093,276.521,325.056,276.521,326.245z"/>
					<g>
						<path style="fill:#FF7268;" d="M262.735,327.769c-4.186,0-10.414-0.406-10.414-1.523c0-1.119,6.229-1.523,10.414-1.523
							c4.185,0,10.413,0.404,10.413,1.523C273.148,327.362,266.921,327.769,262.735,327.769z M262.735,325.017
							c-6.268,0-10.117,0.715-10.117,1.229c0,0.514,3.85,1.228,10.117,1.228c6.268,0,10.118-0.715,10.118-1.228
							C272.854,325.732,269.003,325.017,262.735,325.017z"/>
					</g>
				</g>
				<g>
					<path style="fill:#FF7268;" d="M277.66,324.077c0-1.19-6.174-2.152-13.788-2.152c-7.613,0-13.786,0.963-13.786,2.152
						c0,0.299,0,1.383,0,1.682c0,1.19,6.172,2.154,13.786,2.154c7.614,0,13.788-0.965,13.788-2.154
						C277.66,325.46,277.66,324.376,277.66,324.077z"/>
					<path style="fill:#F99EA3;" d="M277.66,324.077c0,1.189-6.174,2.152-13.788,2.152c-7.613,0-13.786-0.963-13.786-2.152
						c0-1.19,6.172-2.152,13.786-2.152C271.486,321.925,277.66,322.888,277.66,324.077z"/>
					<g>
						<path style="fill:#FF7268;" d="M263.872,325.603c-4.186,0-10.412-0.406-10.412-1.525c0-1.117,6.227-1.523,10.412-1.523
							c4.186,0,10.413,0.406,10.413,1.523C274.285,325.196,268.058,325.603,263.872,325.603z M263.872,322.849
							c-6.268,0-10.117,0.715-10.117,1.229s3.85,1.23,10.117,1.23c6.27,0,10.118-0.717,10.118-1.23S270.142,322.849,263.872,322.849
							z"/>
					</g>
				</g>
				<g>
					<path style="fill:#FF7268;" d="M278.299,322.247c0-1.189-6.172-2.152-13.786-2.152c-7.615,0-13.788,0.963-13.788,2.152
						c0,0.299,0,1.385,0,1.682c0,1.189,6.172,2.152,13.788,2.152c7.614,0,13.786-0.963,13.786-2.152
						C278.299,323.632,278.299,322.546,278.299,322.247z"/>
					<path style="fill:#F99EA3;" d="M278.299,322.247c0,1.188-6.172,2.152-13.786,2.152c-7.615,0-13.788-0.965-13.788-2.152
						c0-1.189,6.172-2.152,13.788-2.152C272.127,320.095,278.299,321.058,278.299,322.247z"/>
					<g>
						<path style="fill:#FF7268;" d="M264.513,323.772c-4.188,0-10.414-0.406-10.414-1.525s6.227-1.523,10.414-1.523
							c4.186,0,10.413,0.404,10.413,1.523S268.698,323.772,264.513,323.772z M264.513,321.019c-6.27,0-10.119,0.715-10.119,1.229
							s3.85,1.228,10.119,1.228c6.268,0,10.116-0.715,10.116-1.228S270.78,321.019,264.513,321.019z"/>
					</g>
				</g>
				<g>
					<path style="fill:#FF7268;" d="M276.664,319.882c0-1.189-6.171-2.152-13.786-2.152c-7.613,0-13.788,0.963-13.788,2.152
						c0,0.299,0,1.383,0,1.682c0,1.189,6.174,2.154,13.788,2.154c7.615,0,13.786-0.965,13.786-2.154
						C276.664,321.265,276.664,320.181,276.664,319.882z"/>
					<path style="fill:#F99EA3;" d="M276.664,319.882c0,1.189-6.171,2.152-13.786,2.152c-7.613,0-13.788-0.963-13.788-2.152
						c0-1.189,6.174-2.152,13.788-2.152C270.493,317.729,276.664,318.692,276.664,319.882z"/>
					<g>
						<path style="fill:#FF7268;" d="M262.878,321.407c-4.186,0-10.414-0.406-10.414-1.525c0-1.117,6.229-1.523,10.414-1.523
							c4.188,0,10.415,0.406,10.415,1.523C273.293,321.001,267.065,321.407,262.878,321.407z M262.878,318.653
							c-6.268,0-10.117,0.715-10.117,1.228c0,0.514,3.85,1.23,10.117,1.23c6.27,0,10.118-0.717,10.118-1.23
							C272.996,319.368,269.147,318.653,262.878,318.653z"/>
					</g>
				</g>
				<g>
					<path style="fill:#FF7268;" d="M247.723,319.782c-1.021-0.605-5,4.211-8.885,10.76c-3.883,6.549-6.201,12.352-5.18,12.957
						c0.256,0.152,1.189,0.707,1.445,0.857c1.023,0.607,5.002-4.211,8.885-10.76c3.885-6.549,6.203-12.35,5.182-12.957
						C248.913,320.487,247.979,319.935,247.723,319.782z"/>
					<path style="fill:#F99EA3;" d="M247.723,319.782c1.023,0.605-1.297,6.408-5.182,12.957c-3.883,6.549-7.861,11.365-8.883,10.76
						c-1.021-0.606,1.297-6.408,5.18-12.957C242.723,323.993,246.702,319.177,247.723,319.782z"/>
					<g>
						<path style="fill:#FF7268;" d="M242.002,332.417c-2.135,3.602-5.662,8.75-6.623,8.182c-0.963-0.57,1.865-6.135,4.002-9.736
							c2.135-3.6,5.66-8.75,6.621-8.18C246.965,323.255,244.137,328.817,242.002,332.417z M239.633,331.013
							c-3.197,5.393-4.545,9.068-4.103,9.33c0.441,0.264,3.021-2.684,6.219-8.076c3.197-5.391,4.545-9.066,4.104-9.328
							C245.411,322.677,242.831,325.622,239.633,331.013z"/>
					</g>
				</g>
			</g>
		</g>
	</g>
	<g>
		<g>
			<path style="fill:#F99EA3;" d="M223.452,344.803c-0.392,0-1.938,0-2.329,0c-10.792,0-19.54,8.748-19.54,19.541
				c0,10.789,8.748,19.539,19.54,19.539c0.391,0,1.937,0,2.329,0c10.79,0,19.538-8.75,19.538-19.539
				C242.99,353.551,234.243,344.803,223.452,344.803z"/>
			<path style="fill:#FF7268;" d="M242.99,364.344c0,10.789-8.748,19.539-19.538,19.539c-10.791,0-19.539-8.75-19.539-19.539
				c0-10.793,8.748-19.541,19.539-19.541C234.243,344.803,242.99,353.551,242.99,364.344z"/>
			<g>
				<path style="fill:#F99EA3;" d="M223.452,380.611c-8.971,0-16.269-7.299-16.269-16.268c0-8.973,7.298-16.27,16.269-16.27
					s16.27,7.297,16.27,16.27C239.722,373.313,232.423,380.611,223.452,380.611z M223.452,349.051
					c-8.432,0-15.292,6.859-15.292,15.293c0,8.43,6.86,15.291,15.292,15.291c8.431,0,15.293-6.861,15.293-15.291
					C238.745,355.91,231.883,349.051,223.452,349.051z"/>
			</g>
		</g>
		<g>
			<path style="fill:#F6A9A3;" d="M231.614,403.126c0,0,6.056,16.189-6.178,19.648l-7.167,11.985l-19.154-11.615l6.178-10.381
				c0,0-5.683-9.638-3.83-14.583c1.854-4.941,5.066-5.313,5.066-5.313s-2.964-11.528,2.473-19.668
				c5.436-8.139,12.739-13.77,25.58-11.845c2.472,0.371,4.201,6.92-1.235,7.415c-5.438,0.494-15.199,3.068-17.796,14.212
				c0,0,4.818-6.674,11.863-1.978c0,0,5.691-3.706,9.518,1.484c0,0,5.805-0.744,7.783,7.907
				C246.691,399.047,236.31,405.472,231.614,403.126z"/>
			<g>
				<g>
					<path style="fill:#F48B78;" d="M231.614,403.498c-0.106,0-0.213-0.047-0.286-0.136c-0.107-0.128-2.6-3.168-1.669-5.628
						c0.87-2.294,3.81-5.306,7.354-4.488c0.2,0.044,0.326,0.246,0.28,0.446c-0.046,0.201-0.244,0.325-0.448,0.278
						c-2.972-0.681-5.681,1.9-6.487,4.03c-0.777,2.049,1.52,4.857,1.543,4.885c0.132,0.159,0.11,0.395-0.049,0.525
						C231.782,403.47,231.699,403.498,231.614,403.498z"/>
				</g>
				<g>
					<path style="fill:#F48B78;" d="M226.548,392.251c-0.035,0-0.072-0.004-0.107-0.016c-0.199-0.057-0.309-0.266-0.251-0.463
						c2.637-8.79,10.625-9.647,10.705-9.656c0.215-0.014,0.389,0.131,0.409,0.336c0.02,0.206-0.131,0.388-0.335,0.407
						c-0.309,0.029-7.574,0.831-10.063,9.126C226.858,392.147,226.71,392.251,226.548,392.251z"/>
				</g>
				<g>
					<path style="fill:#F48B78;" d="M218.146,390.645c-0.014,0-0.025,0-0.038,0c-0.205-0.021-0.355-0.204-0.334-0.408
						c0.507-5.091,9.108-9.385,9.474-9.564c0.186-0.093,0.409-0.016,0.499,0.169c0.091,0.184,0.016,0.408-0.169,0.499
						c-0.087,0.042-8.594,4.29-9.062,8.97C218.498,390.503,218.335,390.645,218.146,390.645z"/>
				</g>
				<g>
					<path style="fill:#F48B78;" d="M206.899,395.589c-0.168,0-0.321-0.115-0.362-0.286c-0.006-0.024-0.605-2.534-0.856-4.993
						c-0.021-0.204,0.128-0.386,0.333-0.408c0.202-0.016,0.388,0.128,0.409,0.333c0.246,2.409,0.834,4.869,0.84,4.893
						c0.047,0.2-0.075,0.402-0.275,0.451C206.957,395.585,206.928,395.589,206.899,395.589z"/>
				</g>
			</g>
			<path style="fill:#080E3F;" d="M123.522,499.999c0,0,0.789-118.124-1.304-126.799c0,0-21.894-22.489-52.964-21.113
				c-31.069,1.377-49.609,34.274-54.394,78.531c-4.785,44.26-5.085,69.381-5.085,69.381H123.522z"/>
			<path style="fill:#080E3F;" d="M202.402,418.49c0,0,14.744-6.983,20.638,14.294c0,0-23.667,34.915-39.218,42.394
				c-15.551,7.477-33.954-2.992-72.265-41.569c0,0-10.571-48.745,10.661-60.408l58.614,64.895L202.402,418.49z"/>
			<path style="fill:#F6A9A3;" d="M108.925,336.619l-5.34,23.426c0,0-22.026,11.38-40.805-6.425c0,0,9.751-14.775,14.598-26.169
				L108.925,336.619z"/>
			<path style="fill:#F48B78;" d="M134.814,301.385c3.026,3.107,5.25,14.636,3.872,16.93c-1.379,2.296-7.033,1.579-8.422,0.686
				C128.875,318.108,132.823,299.341,134.814,301.385z"/>
			<path style="fill:#F6A9A3;" d="M65.308,295.176c-4.486,20.095,7.291,39.841,26.305,44.106
				c19.016,4.262,38.067-8.571,42.555-28.666c4.487-20.095-7.291-39.839-26.306-44.104C88.847,262.25,69.795,275.081,65.308,295.176
				z"/>
			<path style="fill:#080E3F;" d="M136.296,272.889c0,0-5.028,19.294-28.81,19.749c0,0-4.994,36.894-27.076,41.876
				c0,0-13.604-3.345-20.897-21.671c-7.401-18.588,1.723-49.098,25.772-51.392C100.931,250.22,125.514,250.049,136.296,272.889z"/>
			<path style="fill:#F6A9A3;" d="M88.989,312.686c-1.44,6.451,2.609,12.851,9.048,14.296c6.438,1.441,12.824-2.616,14.265-9.067
				c1.44-6.452-2.611-12.852-9.049-14.295C96.816,302.175,90.431,306.233,88.989,312.686z"/>
			<g>
				<g>
					<path style="fill:#F48B78;" d="M105.329,320.86c-0.063-0.014-0.125-0.044-0.175-0.096c-0.147-0.142-0.153-0.377-0.012-0.523
						c1.108-1.156,1.733-2.675,1.764-4.275c0.065-3.498-2.726-6.397-6.211-6.461c-3.49-0.064-6.384,2.728-6.448,6.225
						c-0.004,0.206-0.174,0.369-0.378,0.367c-0.205,0-0.368-0.174-0.365-0.38c0.074-3.909,3.305-7.028,7.205-6.955
						c3.9,0.071,7.012,3.311,6.938,7.217c-0.031,1.789-0.732,3.485-1.968,4.777C105.583,320.854,105.45,320.887,105.329,320.86z"/>
				</g>
				<g>
					<path style="fill:#F48B78;" d="M101.333,322.354L101.333,322.354c-1.99-0.448-3.407-2.257-3.368-4.301
						c0.044-2.381,2.016-4.287,4.396-4.243c0.292,0.005,0.582,0.04,0.864,0.103c1.991,0.446,3.408,2.257,3.371,4.304
						c-0.045,2.383-2.018,4.287-4.395,4.24C101.907,322.451,101.615,322.416,101.333,322.354z M103.063,314.639
						c-0.234-0.054-0.474-0.083-0.716-0.087c-1.97-0.036-3.604,1.542-3.642,3.515c-0.031,1.693,1.142,3.191,2.789,3.563l0,0
						c0.235,0.05,0.477,0.079,0.719,0.086c1.97,0.036,3.602-1.54,3.64-3.513C105.883,316.506,104.71,315.009,103.063,314.639z"/>
				</g>
			</g>
			<path style="fill:#5758FF;" d="M77.251,277.855c-1.982,4.273-6.355,6.458-9.771,4.875c-3.415-1.585-4.576-6.331-2.595-10.607
				c1.982-4.276,6.357-6.46,9.771-4.878C78.072,268.829,79.233,273.579,77.251,277.855z"/>
			<g>
				<path style="fill:#222221;" d="M130.909,302.375c-0.702,2.229-2.286,4.793-4.987,3.605c-2.49-1.096-4.276-3.752-5.412-6.124
					c-0.392-0.821,0.806-1.596,1.204-0.766c0.836,1.753,1.94,3.373,3.385,4.678c2.122,1.927,3.656,0.729,4.421-1.706
					C129.794,301.191,131.186,301.495,130.909,302.375L130.909,302.375z"/>
			</g>
			<g>
				<path style="fill:#080E3F;" d="M67.453,279.695c0,0-8.979-4.765-10.801,7.819c-1.822,12.588,0.953,38.965-12.331,50.053
					c-13.279,11.081-34.542,2.119-37.396-9.865c-1.691-7.101-1.147-14.388,5.447-18.901c5.664-4.021,11.497-2.92,16.929,0.73
					c-3.476-13.492,1.832-45.626,14.681-51.866c10.162-4.936,23.311,4.006,28.062,9.702c0,0,2.575,3.174-0.044,8.697
					C70.204,279.85,67.453,279.695,67.453,279.695z"/>
			</g>
			<g>
				<path style="fill:#5758FF;" d="M111.07,433.714c-0.021-0.097-2.11-9.844-2.558-21.508c-0.604-15.719,1.898-27.249,7.433-34.268
					l0.782,0.614c-12.87,16.322-4.77,54.567-4.685,54.95L111.07,433.714z"/>
			</g>
		</g>
	</g>
</g>
</svg>
